<mxfile host="65bd71144e">
    <diagram id="C5RBs43oDa-KdzZeNtuy" name="Page-1">
        <mxGraphModel dx="1324" dy="776" grid="1" gridSize="10" guides="1" tooltips="1" connect="1" arrows="1" fold="1" page="1" pageScale="1" pageWidth="827" pageHeight="1169" math="0" shadow="0">
            <root>
                <mxCell id="WIyWlLk6GJQsqaUBKTNV-0"/>
                <mxCell id="WIyWlLk6GJQsqaUBKTNV-1" parent="WIyWlLk6GJQsqaUBKTNV-0"/>
                <mxCell id="oRMiCwzHCgwkClPl75h4-26" style="edgeStyle=orthogonalEdgeStyle;rounded=0;orthogonalLoop=1;jettySize=auto;html=1;exitX=1;exitY=1;exitDx=0;exitDy=0;exitPerimeter=0;entryX=0;entryY=0.5;entryDx=0;entryDy=0;startArrow=ERoneToMany;startFill=0;endArrow=ERoneToMany;endFill=0;" parent="WIyWlLk6GJQsqaUBKTNV-1" source="oRMiCwzHCgwkClPl75h4-0" target="oRMiCwzHCgwkClPl75h4-23" edge="1">
                    <mxGeometry relative="1" as="geometry">
                        <Array as="points">
                            <mxPoint x="264" y="165"/>
                            <mxPoint x="264" y="390"/>
                        </Array>
                    </mxGeometry>
                </mxCell>
                <mxCell id="oRMiCwzHCgwkClPl75h4-0" value="Cliente" style="shape=umlActor;verticalLabelPosition=bottom;verticalAlign=top;html=1;outlineConnect=0;" parent="WIyWlLk6GJQsqaUBKTNV-1" vertex="1">
                    <mxGeometry x="154" y="95" width="40" height="70" as="geometry"/>
                </mxCell>
                <mxCell id="oRMiCwzHCgwkClPl75h4-24" value="" style="edgeStyle=orthogonalEdgeStyle;rounded=0;orthogonalLoop=1;jettySize=auto;html=1;startArrow=ERoneToMany;startFill=0;endArrow=ERmandOne;endFill=0;" parent="WIyWlLk6GJQsqaUBKTNV-1" source="oRMiCwzHCgwkClPl75h4-8" target="oRMiCwzHCgwkClPl75h4-23" edge="1">
                    <mxGeometry relative="1" as="geometry"/>
                </mxCell>
                <mxCell id="oRMiCwzHCgwkClPl75h4-8" value="Agenda" style="rounded=1;whiteSpace=wrap;html=1;" parent="WIyWlLk6GJQsqaUBKTNV-1" vertex="1">
                    <mxGeometry x="344" y="240" width="120" height="60" as="geometry"/>
                </mxCell>
                <mxCell id="oRMiCwzHCgwkClPl75h4-25" style="edgeStyle=orthogonalEdgeStyle;rounded=0;orthogonalLoop=1;jettySize=auto;html=1;entryX=1;entryY=0.5;entryDx=0;entryDy=0;startArrow=ERoneToMany;startFill=0;endArrow=ERoneToMany;endFill=0;exitX=0;exitY=1;exitDx=0;exitDy=0;exitPerimeter=0;" parent="WIyWlLk6GJQsqaUBKTNV-1" source="oRMiCwzHCgwkClPl75h4-11" target="oRMiCwzHCgwkClPl75h4-23" edge="1">
                    <mxGeometry relative="1" as="geometry">
                        <mxPoint x="654" y="170" as="sourcePoint"/>
                        <Array as="points">
                            <mxPoint x="604" y="165"/>
                            <mxPoint x="604" y="390"/>
                        </Array>
                    </mxGeometry>
                </mxCell>
                <mxCell id="oRMiCwzHCgwkClPl75h4-11" value="Profissional" style="shape=umlActor;verticalLabelPosition=bottom;verticalAlign=top;html=1;outlineConnect=0;" parent="WIyWlLk6GJQsqaUBKTNV-1" vertex="1">
                    <mxGeometry x="634" y="95" width="40" height="70" as="geometry"/>
                </mxCell>
                <mxCell id="oRMiCwzHCgwkClPl75h4-17" value="N .. N" style="edgeStyle=orthogonalEdgeStyle;rounded=0;orthogonalLoop=1;jettySize=auto;html=1;startArrow=ERoneToMany;startFill=0;endArrow=ERoneToMany;endFill=0;" parent="WIyWlLk6GJQsqaUBKTNV-1" source="oRMiCwzHCgwkClPl75h4-16" target="oRMiCwzHCgwkClPl75h4-0" edge="1">
                    <mxGeometry relative="1" as="geometry"/>
                </mxCell>
                <mxCell id="oRMiCwzHCgwkClPl75h4-19" value="N .. N" style="edgeStyle=orthogonalEdgeStyle;rounded=0;orthogonalLoop=1;jettySize=auto;html=1;exitX=1;exitY=0.5;exitDx=0;exitDy=0;endArrow=ERoneToMany;endFill=0;startArrow=ERoneToMany;startFill=0;" parent="WIyWlLk6GJQsqaUBKTNV-1" source="oRMiCwzHCgwkClPl75h4-16" target="oRMiCwzHCgwkClPl75h4-11" edge="1">
                    <mxGeometry relative="1" as="geometry">
                        <Array as="points"/>
                    </mxGeometry>
                </mxCell>
                <mxCell id="oRMiCwzHCgwkClPl75h4-21" style="edgeStyle=orthogonalEdgeStyle;rounded=0;orthogonalLoop=1;jettySize=auto;html=1;startArrow=ERoneToMany;startFill=0;endArrow=ERmandOne;endFill=0;" parent="WIyWlLk6GJQsqaUBKTNV-1" source="oRMiCwzHCgwkClPl75h4-16" target="oRMiCwzHCgwkClPl75h4-8" edge="1">
                    <mxGeometry relative="1" as="geometry"/>
                </mxCell>
                <mxCell id="oRMiCwzHCgwkClPl75h4-16" value="Agendamento" style="rounded=1;whiteSpace=wrap;html=1;" parent="WIyWlLk6GJQsqaUBKTNV-1" vertex="1">
                    <mxGeometry x="344" y="90" width="120" height="80" as="geometry"/>
                </mxCell>
                <mxCell id="oRMiCwzHCgwkClPl75h4-23" value="Estabelecimento" style="rounded=1;whiteSpace=wrap;html=1;" parent="WIyWlLk6GJQsqaUBKTNV-1" vertex="1">
                    <mxGeometry x="344" y="360" width="120" height="60" as="geometry"/>
                </mxCell>
            </root>
        </mxGraphModel>
    </diagram>
</mxfile>